<svg width="100" height="100" viewBox="0 0 190 137" class="css-1j8o68f">
    <defs id="SvgjsDefs3564"></defs>
    <g id="SvgjsG3565" featurekey="rootContainer" transform="matrix(1,0,0,1,0,0)" fill="#ffffff">
        <rect width="190" height="137" rx="10"></rect>
    </g>
    <g id="SvgjsG3566" featurekey="symbolFeature-0" transform="matrix(0.9552998825966725,0,0,0.9552998825966725,41.656454055091494,1.791068844023636)" fill="#37aa84">
        <path xmlns="http://www.w3.org/2000/svg" d="M50.441,47.008c-2.483,0-4.504,2.02-4.504,4.503c0,2.483,2.021,4.504,4.504,4.504s4.504-2.021,4.504-4.504  C54.945,49.028,52.925,47.008,50.441,47.008z"></path>
        <path xmlns="http://www.w3.org/2000/svg" d="M48.438,36.094c0-4.071-3.312-7.382-7.383-7.382c-4.07,0-7.381,3.312-7.381,7.382s3.311,7.383,7.381,7.383  C45.125,43.477,48.438,40.165,48.438,36.094z"></path>
        <path xmlns="http://www.w3.org/2000/svg" d="M82.282,35.536c-1.57-1.571-3.208-3.05-4.89-4.46c-0.005-0.005-0.007-0.012-0.012-0.017  c-0.008-0.008-0.019-0.009-0.027-0.017c-13.302-11.139-29.921-17.215-47.48-17.215c-0.69,0-1.25,0.56-1.25,1.25v72.869  c0,0.506,0.305,0.961,0.771,1.155c0.155,0.063,0.317,0.095,0.478,0.095c0.326,0,0.645-0.127,0.884-0.366l8.1-8.099  c0.643,0.86,0.559,2.313,0.558,2.327c-0.003,0.034-0.004,0.069-0.004,0.104c0,2.106,1.713,3.819,3.818,3.819  s3.818-1.713,3.818-3.819v-8.686v-1.938l10.577-10.576c0.785,0.081,1.394,0.365,1.853,0.861c1.036,1.124,1.117,3.171,1.062,3.861  c-0.003,0.036-0.005,0.072-0.005,0.108c0,2.679,2.179,4.857,4.857,4.857c2.678,0,4.855-2.179,4.855-4.857V54.765v-5.426  l12.036-12.036c0.234-0.234,0.366-0.552,0.366-0.884S82.517,35.77,82.282,35.536z M68.996,43.287c-0.69,0-1.25,0.56-1.25,1.25v4.284  v5.943v12.028c0,1.3-1.057,2.357-2.355,2.357c-1.286,0-2.335-1.036-2.357-2.317c0.034-0.517,0.154-3.659-1.708-5.692  c-1.036-1.13-2.447-1.703-4.194-1.703c-0.331,0-0.649,0.132-0.884,0.366l-9.2,9.199v-3.814c0-0.69-0.56-1.25-1.25-1.25  s-1.25,0.56-1.25,1.25v6.832v2.456v8.686c0,0.728-0.591,1.319-1.318,1.319c-0.713,0-1.296-0.57-1.318-1.279  c0.109-1.514-0.335-4.26-2.684-5.266c-0.471-0.201-1.015-0.097-1.376,0.265l-6.728,6.727V72.457  c3.477-0.597,6.133-3.624,6.133-7.269s-2.656-6.672-6.133-7.269V25.172c15.591,1.07,30.485,7.253,42.225,17.53l-3.102,3.102v-1.267  C70.246,43.847,69.687,43.287,68.996,43.287z M75.119,40.93c-4.319-3.799-9.052-7.064-14.089-9.742l2.003-3.322  c0.356-0.591,0.166-1.359-0.425-1.716c-0.592-0.357-1.359-0.166-1.716,0.425l-2.098,3.478c-6.719-3.286-13.921-5.553-21.354-6.695  l1.014-3.551c0.189-0.664-0.195-1.355-0.859-1.545c-0.666-0.188-1.355,0.196-1.545,0.859l-1.113,3.898  c-1.266-0.15-2.538-0.269-3.814-0.354v-6.329c6.758,0.115,13.361,1.166,19.666,3.081l-1.477,3.119  c-0.295,0.624-0.029,1.369,0.595,1.665c0.173,0.082,0.355,0.121,0.534,0.121c0.468,0,0.917-0.264,1.131-0.715l1.611-3.403  c7.761,2.663,15.029,6.654,21.515,11.879l-1.919,2.035c-0.474,0.502-0.45,1.293,0.052,1.767c0.241,0.228,0.55,0.34,0.857,0.34  c0.332,0,0.664-0.132,0.909-0.393l2.019-2.14c1.021,0.883,2.029,1.788,3.008,2.733L75.119,40.93z"></path>
    </g>
    <g id="SvgjsG3567" featurekey="nameFeature-0" transform="matrix(0.5265783208116711,0,0,0.5265783208116711,18.495828948260723,100.98231242897107)" fill="#37aa84">
        <path d="M2.8571 40 l0 -28.571 l20.857 0 l4.2857 4.2857 l0 12 l-4.2857 4.2857 l-13.429 0 l0 8 l-7.4286 0 z M10.286 25.714 l10.286 0 l0 -8 l-10.286 0 l0 8 z M67.14242857142857 15.713999999999999 l0 10 l-4.2857 4.2857 l4.2857 6.5714 l0 3.4286 l-6.8571 0 l-5.9429 -9.7143 l-5.4857 0 l0 9.7143 l-7.4286 0 l0 -28.571 l21.429 0 z M59.71442857142857 24 l0 -6.2857 l-10.857 0 l0 6.2857 l10.857 0 z M101.4282857142857 11.428999999999998 l4.2857 4.2857 l0 20 l-4.2857 4.2857 l-16.571 0 l-4.2857 -4.2857 l0 -20 l4.2857 -4.2857 l16.571 0 z M98.2852857142857 33.7143 l0 -16 l-10.286 0 l0 16 l10.286 0 z M132.57171428571428 35.7143 l-4.2857 4.2857 l-10.571 0 l0 -6.2857 l7.4286 0 l0 -22.286 l7.4286 0 l0 24.286 z M170.28585714285714 17.714 l-16.857 0 l0 4.8571 l14.571 0 l0 6.2857 l-14.571 0 l0 4.8571 l16.857 0 l0 6.2857 l-20 0 l-4.2857 -4.2857 l0 -24.286 l24.286 0 l0 6.2857 z M200.28614285714286 17.714 l-9.1429 0 l0 16 l9.1429 0 l2.2857 -2.2857 l5.4286 0 l0 4.2857 l-4.2857 4.2857 l-15.714 0 l-4.2857 -4.2857 l0 -20 l4.2857 -4.2857 l15.714 0 l4.2857 4.2857 l0 4.2857 l-5.4286 0 z M219.42856857142857 17.714 l0 -6.2857 l24.286 0 l0 6.2857 l-8.4571 0 l0 22.286 l-7.4286 0 l0 -22.286 l-8.4 0 z M285.42871428571436 34.2857 l2.2857 0 l0 5.7143 l-12 0 l0 -5.7143 l2.2857 0 l0 -16.571 l-2.2857 0 l0 -3.4286 l2.8571 -2.8571 l6.8571 0 l0 22.857 z"></path>
    </g>
</svg>